HIERARCHY
ROOT hip
{
	OFFSET 0.00000 0.00000 0.00000
	CHANNELS 6 Xposition Yposition Zposition Zrotation Yrotation Xrotation 
	JOINT rightuplegdummy
	{
		OFFSET 0 0 0
		CHANNELS 3 Zrotation Yrotation Xrotation
		JOINT rightupleg
		{
			OFFSET -3.52197 -3.41223 0.04002
			CHANNELS 3 Zrotation Yrotation Xrotation
			JOINT rightleg
			{
				OFFSET 0.00006 -17.42390 1.60435
				CHANNELS 3 Zrotation Yrotation Xrotation
				JOINT rightfoot
				{
					OFFSET 0.06153 -16.50078 -1.63901
					CHANNELS 3 Zrotation Yrotation Xrotation
					JOINT righttoes
					{
						OFFSET 0.00298 -1.73825 3.34613
						CHANNELS 3 Zrotation Yrotation Xrotation
						End Site
						{
							OFFSET 0.00480 -0.05416 3.85043
						}
					}
				}
			}
		}
	}
	JOINT spinedummy
	{
		OFFSET 0 0 0
		CHANNELS 3 Zrotation Yrotation Xrotation
		JOINT spine
		{
			OFFSET 0.00000 4.68130 0.00000
			CHANNELS 3 Zrotation Yrotation Xrotation
			JOINT spine1
			{
				OFFSET -0.00000 10.10138 0.05002
				CHANNELS 3 Zrotation Yrotation Xrotation
				JOINT headdummy
				{
					OFFSET 0 0 0
					CHANNELS 3 Zrotation Yrotation Xrotation
					JOINT head
					{
						OFFSET -0.00000 3.43865 0.00438
						CHANNELS 3 Zrotation Yrotation Xrotation
						End Site
						{
							OFFSET -0.11417 5.02924 0.98962
						}
					}
				}
				JOINT leftshoulder1dummy
				{
					OFFSET 0 0 0
					CHANNELS 3 Zrotation Yrotation Xrotation
					JOINT leftshoulder1
					{
						OFFSET 3.53937 -0.14262 -0.08662
						CHANNELS 3 Zrotation Yrotation Xrotation
						JOINT leftarm
						{
							OFFSET 4.04833 -0.00133 0.12681
							CHANNELS 3 Zrotation Yrotation Xrotation
							JOINT leftforearm
							{
								OFFSET 10.33880 -0.01036 -0.55515
								CHANNELS 3 Zrotation Yrotation Xrotation
								JOINT lefthand
								{
									OFFSET 8.69677 0.07543 0.40060
									CHANNELS 3 Zrotation Yrotation Xrotation
									End Site
									{
										OFFSET 5.28377 -0.21905 0.59205
									}
								}
							}
						}
					}
				}
				JOINT rightshoulderdummy
				{
					OFFSET 0 0 0
					CHANNELS 3 Zrotation Yrotation Xrotation
					JOINT rightshoulder
					{
						OFFSET -3.53937 -0.14262 -0.08660
						CHANNELS 3 Zrotation Yrotation Xrotation
						JOINT rightarm
						{
							OFFSET -4.04833 -0.00133 0.12683
							CHANNELS 3 Zrotation Yrotation Xrotation
							JOINT rightforearm
							{
								OFFSET -10.37987 -0.01039 -0.55511
								CHANNELS 3 Zrotation Yrotation Xrotation
								JOINT righthand
								{
									OFFSET -8.67398 0.07538 0.40058
									CHANNELS 3 Zrotation Yrotation Xrotation
									End Site
									{
										OFFSET -5.24810 -0.21916 0.59204
									}
								}
							}
						}
					}
				}
			}
		}
	}
	JOINT leftuplegdummy
	{
		OFFSET 0 0 0
		CHANNELS 3 Zrotation Yrotation Xrotation
		JOINT leftupleg
		{
			OFFSET 3.52197 -3.41223 0.04002
			CHANNELS 3 Zrotation Yrotation Xrotation
			JOINT leftleg
			{
				OFFSET -0.00012 -17.42399 1.60337
				CHANNELS 3 Zrotation Yrotation Xrotation
				JOINT leftfoot
				{
					OFFSET -0.09972 -16.50070 -1.63802
					CHANNELS 3 Zrotation Yrotation Xrotation
					JOINT lefttoes
					{
						OFFSET -0.01575 -1.73823 3.34611
						CHANNELS 3 Zrotation Yrotation Xrotation
						End Site
						{
							OFFSET 0.03150 -0.01868 3.85031
						}
					}
				}
			}
		}
	}
}
MOTION
Frames: 13
Frame Time: 0.033333
-10.6270 34.4844 3.8996 -172.5520 75.1885 179.5290 0.0000 -0.0000 0.0000 -18.7664 -15.9771 -18.8511 3.2382 2.5910 48.0278 5.5304 0.0125 -12.5888 0.0000 0.0000 -0.0000 0.0000 -0.0000 0.0000 -4.6461 -2.3500 11.8356 12.8711 -8.3375 16.9079 -0.0000 -0.0000 -0.0000 -34.2736 47.4275 -18.2392 -0.0000 -0.0000 -0.0000 -22.0880 -3.7917 2.0729 -22.5038 -36.7058 -1.3353 179.0579 -81.9155 -167.0382 27.6991 4.9317 -0.1275 -0.0000 -0.0000 -0.0000 30.7010 5.3855 3.2633 27.6495 -3.8627 -19.6026 5.4969 84.2646 3.1858 -26.3702 0.3341 -1.3120 0.0000 -0.0000 0.0000 31.3503 25.8476 -9.3052 -2.5846 -2.6228 44.4209 -11.5780 -0.2736 -14.8800 0.0000 -0.0000 -0.0000
-10.5251 35.3265 5.4174 -176.2600 67.7990 174.7360 0.0000 -0.0000 0.0000 -19.4590 -20.4744 -13.4517 0.7706 0.8259 45.6646 3.9643 0.0355 -13.8868 0.0000 0.0000 -0.0000 0.0000 -0.0000 0.0000 -0.5775 -0.4084 10.8105 5.7585 -3.4501 19.5488 -0.0000 -0.0000 -0.0000 -35.4169 48.9493 -19.9020 -0.0000 -0.0000 -0.0000 -23.4937 -3.9906 2.2290 -23.9930 -32.7578 1.5915 179.4863 -81.5325 -168.5474 26.6266 5.1843 -0.0665 -0.0000 -0.0000 -0.0000 31.3224 5.5278 3.3709 31.8398 4.2513 -15.6062 9.7025 88.1725 12.4271 -25.4969 0.4161 -1.2831 0.0000 -0.0000 0.0000 29.4256 22.6255 -8.4478 -2.5269 -3.4796 34.7735 -8.2237 0.0719 -11.1825 0.0000 -0.0000 -0.0000
-10.2910 36.6184 6.4441 179.3750 61.3056 171.0730 0.0000 -0.0000 0.0000 -20.6769 -24.8798 -7.8138 0.2612 0.5147 39.1703 3.7678 0.0206 -13.4889 0.0000 0.0000 -0.0000 0.0000 -0.0000 0.0000 2.0361 0.5649 10.4816 -0.1804 0.2622 18.4239 -0.0000 -0.0000 -0.0000 -32.6404 51.1270 -16.9606 -0.0000 -0.0000 -0.0000 -25.0447 -4.0601 2.3612 -26.5935 -22.0759 5.4001 179.9404 -80.9413 -170.4103 24.8830 5.1775 -0.0664 -0.0000 -0.0000 -0.0000 30.2127 5.3271 3.1993 35.8131 10.7369 -5.6745 179.5514 86.7185 -171.5699 -21.7044 -0.0123 -1.0105 0.0000 -0.0000 0.0000 25.6151 18.5763 -5.9760 0.2666 -0.1720 21.8296 -5.8448 0.1078 -10.4556 0.0000 -0.0000 -0.0000
-10.1346 37.7330 7.1747 176.9740 54.0005 169.9830 0.0000 -0.0000 0.0000 -21.8552 -28.1085 -2.5599 -1.9131 -2.2045 32.2599 5.2210 -0.0864 -10.3023 0.0000 0.0000 -0.0000 0.0000 -0.0000 0.0000 3.2169 0.8173 9.9427 -4.0347 2.1435 16.9563 -0.0000 -0.0000 -0.0000 -29.6615 51.2053 -14.9360 -0.0000 -0.0000 -0.0000 -25.9452 -4.1986 2.4709 -28.5713 -10.9201 6.4412 179.2455 -81.4924 -167.5405 22.3354 5.2129 -0.0582 -0.0000 -0.0000 -0.0000 27.0691 4.6863 2.7161 39.6365 15.5480 3.9054 -178.7695 79.9139 -164.4842 -15.2668 -0.6371 -0.6298 0.0000 -0.0000 0.0000 21.7906 14.7064 -5.5065 1.8448 4.6661 14.3925 -7.1630 0.2714 -7.8060 0.0000 -0.0000 -0.0000
-10.1063 38.5419 7.7868 176.0870 47.3725 169.9770 0.0000 -0.0000 0.0000 -21.4901 -27.2532 1.4949 -5.5178 -8.6907 26.0312 5.1717 -0.2503 -6.1966 0.0000 0.0000 -0.0000 0.0000 -0.0000 0.0000 4.3436 1.4051 9.6297 -6.3200 3.8401 16.3889 -0.0000 -0.0000 -0.0000 -27.0055 48.1706 -14.0060 -0.0000 -0.0000 -0.0000 -25.4021 -4.4732 2.5170 -31.4562 -2.4047 5.8216 177.2462 -84.1766 -162.3132 20.3717 5.3668 -0.0293 -0.0000 -0.0000 -0.0000 24.4371 4.1524 2.3451 41.0440 19.1028 9.7100 -179.3295 72.5341 -165.6301 -11.0354 -1.4414 -0.3821 0.0000 -0.0000 0.0000 18.4617 16.6397 -6.5328 1.3987 3.5214 15.7929 -7.4091 0.6491 -1.2883 0.0000 -0.0000 -0.0000
-10.2382 38.9791 8.2157 176.5430 41.1971 170.7510 0.0000 -0.0000 0.0000 -20.8011 -27.1888 4.6824 -7.4085 -13.7724 21.9963 4.5500 -0.3115 -3.8356 0.0000 0.0000 -0.0000 0.0000 -0.0000 0.0000 6.4369 1.6735 9.5647 -7.6716 5.0990 16.3367 -0.0000 -0.0000 -0.0000 -25.0686 43.6730 -13.5960 -0.0000 -0.0000 -0.0000 -24.1228 -4.5886 2.4548 -34.7359 3.5250 4.7530 131.3941 -89.6537 -117.2784 20.4935 4.6202 -0.1592 -0.0000 -0.0000 -0.0000 22.3818 3.7444 2.0797 41.3819 22.2141 13.1437 179.6636 67.1516 -173.8914 -11.2518 -1.8575 -0.3542 0.0000 -0.0000 0.0000 15.8851 18.6342 -8.0729 0.2435 -0.1646 23.6070 -7.5428 1.0169 4.3740 0.0000 -0.0000 -0.0000
-10.4765 39.1776 8.4971 177.0590 35.5197 171.4100 0.0000 -0.0000 0.0000 -21.9849 -29.2006 7.9349 -6.8923 -16.9528 19.5834 6.9645 -0.5592 -2.3142 0.0000 0.0000 -0.0000 0.0000 -0.0000 0.0000 8.5564 1.4962 9.5008 -9.0544 5.7626 16.7919 -0.0000 -0.0000 -0.0000 -24.5510 39.3071 -13.6244 -0.0000 -0.0000 -0.0000 -23.6996 -4.4880 2.3921 -36.9251 6.4810 3.2588 0.4429 -80.5220 10.8094 20.7582 3.4833 -0.3587 -0.0000 -0.0000 -0.0000 20.9023 3.3741 1.8777 41.9298 25.0095 15.2003 178.8405 64.9091 177.5217 -12.3304 -1.8066 -0.3921 0.0000 -0.0000 0.0000 13.9390 20.4032 -7.6119 -0.0907 -0.6690 28.1563 -10.6403 1.5794 5.8866 0.0000 -0.0000 -0.0000
-10.7458 39.3044 8.8304 176.1640 31.7538 171.8520 0.0000 -0.0000 0.0000 -23.6349 -32.8577 8.5284 -6.8961 -17.4694 18.6145 9.3993 -0.8910 -0.5329 0.0000 0.0000 -0.0000 0.0000 -0.0000 0.0000 8.4231 1.9372 9.8251 -10.1495 6.3283 16.6198 -0.0000 -0.0000 -0.0000 -25.2780 35.7324 -13.9043 -0.0000 -0.0000 -0.0000 -24.6458 -4.2826 2.4008 -38.0373 6.2822 2.2326 -0.2113 -65.9997 9.7015 20.3761 2.6746 -0.4912 -0.0000 -0.0000 -0.0000 21.2829 3.4864 1.9336 41.6194 26.8791 15.6603 178.4080 65.2586 173.2323 -11.8147 -2.1005 -0.3485 0.0000 -0.0000 0.0000 11.1570 25.9312 -5.7683 -0.1472 -0.9466 24.0176 -11.6450 1.5629 4.1058 0.0000 -0.0000 -0.0000
-11.0762 39.1131 9.3475 174.6250 28.5921 172.7900 0.0000 -0.0000 0.0000 -23.6668 -33.2168 3.9108 -9.5259 -16.6990 23.7352 9.8233 -0.8879 -1.0979 0.0000 0.0000 -0.0000 0.0000 -0.0000 0.0000 6.1978 2.6600 10.4909 -9.4820 6.3684 16.0019 -0.0000 -0.0000 -0.0000 -27.0701 31.9671 -15.3111 -0.0000 -0.0000 -0.0000 -26.1504 -4.0988 2.4541 -38.0815 1.0382 6.1039 -0.1811 -44.6470 3.5245 22.0886 1.5475 -0.7450 -0.0000 -0.0000 -0.0000 22.5666 4.0024 2.1666 41.7411 28.0244 15.3106 178.2587 68.3699 173.1081 -11.6931 -2.0639 -0.3501 0.0000 -0.0000 0.0000 7.1875 28.1851 -7.0577 -0.8003 -1.7554 18.7516 -8.7458 1.0761 2.9139 0.0000 -0.0000 -0.0000
-11.3501 38.6756 10.0567 174.0690 24.6796 173.4610 0.0000 -0.0000 0.0000 -23.5974 -27.5295 -0.6261 -11.1575 -14.6013 31.8246 11.8436 -0.9027 -2.7315 0.0000 0.0000 -0.0000 0.0000 -0.0000 0.0000 4.5627 2.7279 11.3822 -8.1397 5.8018 16.5532 -0.0000 -0.0000 -0.0000 -28.3107 27.5604 -17.2608 -0.0000 -0.0000 -0.0000 -26.1987 -4.2005 2.4906 -38.0311 -8.4332 11.7029 -5.2441 -20.8415 -5.3899 23.7012 2.8683 -0.5282 -0.0000 -0.0000 -0.0000 23.4482 4.4750 2.3692 44.6961 29.9810 15.5312 177.9383 75.6075 176.1904 -15.2896 -2.7140 -0.3777 0.0000 -0.0000 0.0000 4.6102 23.8858 -11.1919 -0.3006 -1.0551 19.8162 -7.7692 0.9453 2.7648 0.0000 -0.0000 -0.0000
-11.3716 38.2126 10.8958 174.8090 22.1058 173.2300 0.0000 -0.0000 0.0000 -22.9982 -18.2138 -3.5871 -10.3026 -10.3835 38.8928 14.7402 -1.0684 -3.1860 0.0000 0.0000 -0.0000 0.0000 -0.0000 0.0000 3.8995 2.7305 12.4636 -7.3108 5.3869 17.9292 -0.0000 -0.0000 -0.0000 -27.5760 24.7355 -17.9489 -0.0000 -0.0000 -0.0000 -24.2273 -4.6255 2.4741 -39.2370 -14.3553 -1.1100 -12.6681 -4.7728 6.0319 23.5100 5.8973 0.0787 -0.0000 -0.0000 -0.0000 24.3683 4.8132 2.5423 49.9820 32.8034 17.3177 178.4842 84.7545 -175.0738 -19.6045 -7.2875 0.2835 0.0000 -0.0000 0.0000 5.0913 22.1988 -14.2294 -0.7464 -1.9937 23.3909 -8.2318 0.9753 2.3536 0.0000 -0.0000 -0.0000
-11.0449 37.8348 11.8031 175.8520 21.4248 172.8100 0.0000 -0.0000 0.0000 -21.3849 -7.9327 -6.5394 -7.2327 -5.8402 44.5963 13.5938 -0.9310 -3.6887 0.0000 0.0000 -0.0000 0.0000 -0.0000 0.0000 2.0429 3.3983 12.6944 -5.4733 5.0131 19.1745 -0.0000 -0.0000 -0.0000 -25.6665 24.1193 -16.9509 -0.0000 -0.0000 -0.0000 -22.8805 -4.8910 2.4477 -42.3029 -12.9967 6.5515 -11.4871 -8.8604 4.5190 25.1692 5.3843 -0.0247 -0.0000 -0.0000 -0.0000 25.5739 5.0861 2.7247 53.9801 33.5108 20.1849 -145.0151 89.2859 -127.5128 -15.8048 -12.9304 0.9405 0.0000 -0.0000 0.0000 6.8347 23.3320 -15.7119 -1.8205 -3.7265 24.8664 -7.8223 0.9530 2.7849 0.0000 -0.0000 -0.0000
-10.5268 37.5761 12.6895 176.5770 20.2079 172.4290 0.0000 -0.0000 0.0000 -19.9373 -0.5450 -7.9897 0.0444 0.2420 48.0837 11.0624 -0.4956 -6.5137 0.0000 0.0000 -0.0000 0.0000 -0.0000 0.0000 -0.1456 4.0031 11.5155 -2.8581 4.3048 20.4380 -0.0000 -0.0000 -0.0000 -22.4658 23.2939 -14.1637 -0.0000 -0.0000 -0.0000 -23.1145 -4.6557 2.3967 -43.8274 -10.0243 25.5905 -3.6175 -21.6719 -8.1197 24.4363 2.9910 -0.5135 -0.0000 -0.0000 -0.0000 26.6213 5.2812 2.8750 53.7015 30.5113 22.3061 -165.0029 87.5658 -141.7540 -4.9119 -12.1176 0.2212 0.0000 -0.0000 0.0000 8.6163 20.6893 -16.4345 -1.1383 -2.6022 24.5161 -9.0312 1.2509 4.7173 0.0000 -0.0000 -0.0000
